PathFileType	4	(X/Y/Z)	6_coords_data.trc
DataRate	CameraRate	NumFrames	NumMarkers	Units	OrigDataRate	OrigDataStartFrame	OrigNumFrames
30.0	30.0	6	21	m	30.0	72	82
Frame#	Time	THUMB_TIP	THUMB_IP	THUMB_MCP	THUMB_CMC	INDEX_TIP	INDEX_DIP	INDEX_PIP	INDEX_MCP	MIDDLE_TIP	MIDDLE_DIP	MIDDLE_PIP	MIDDLE_MCP	RING_TIP	RING_DIP	RING_PIP	RING_MCP	PINKY_TIP	PINKY_DIP	PINKY_PIP	PINKY_MCP	WRIST
X1	Y1	Z1	X2	Y2	Z2	X3	Y3	Z3	X4	Y4	Z4	X5	Y5	Z5	X6	Y6	Z6	X7	Y7	Z7	X8	Y8	Z8	X9	Y9	Z9	X10	Y10	Z10	X11	Y11	Z11	X12	Y12	Z12	X13	Y13	Z13	X14	Y14	Z14	X15	Y15	Z15	X16	Y16	Z16	X17	Y17	Z17	X18	Y18	Z18	X19	Y19	Z19	X20	Y20	Z20	X21	Y21	Z21
70	2.366666666666656	0.5326662161465929	-0.004411595418004621	-0.15007710305402472	0.5246506682103934	-0.009960654422157544	-0.12926943774888025	0.5024012336495022	-0.021785697165499385	-0.11099511078894114	0.4841655426733966	-0.0247730912134414	-0.07039430967090526	0.5728938798389717	0.05479835737552108	-0.1491168639833701	0.5568252551752801	0.04889218644516824	-0.14320784999126784	0.5359413906696486	0.03866970829008509	-0.13364882406394285	0.507367833624907	0.015147066755857419	-0.11258052401236956	0.5838151714710835	0.07323917796334567	-0.12060965364503395	0.567149318750807	0.06730438634532743	-0.1167331085908968	0.5414635034215909	0.055749745223072744	-0.10924053163705066	0.5090404676292507	0.029439871683397345	-0.09334445585291706	0.5874245463826573	0.07080003836915905	-0.08716586398731552	0.5704092967866221	0.06575365732794225	-0.08400116501719679	0.5476317899079272	0.05657565127444686	-0.07986240140072781	0.5154755965754222	0.033085355526391136	-0.0728691139026022	0.5851860878216902	0.03435278430919819	-0.05974373781431891	0.5694950578461782	0.040114272325886935	-0.05605634928839248	0.5488828851217418	0.04255862321510717	-0.052897947270224344	0.516104610729992	0.02758060019443853	-0.051439521649395914	0.4622830810018609	-0.023011742144276925	-0.051989820119430985
71	2.3999999999999897	0.5327288077062551	-0.004380007388244289	-0.15001596171957066	0.5246849543866028	-0.009926004552339385	-0.1292184056317086	0.5024290502288545	-0.02178308947830998	-0.11097274129248957	0.4841779103079321	-0.024776159816624066	-0.07037930067042841	0.5729464520939819	0.05475199352443483	-0.14908551125685862	0.5568707656470383	0.04885793774627911	-0.14318361226216678	0.5359740840018622	0.03864875399791834	-0.13363839898993615	0.5074088413652325	0.015117157198106246	-0.11256882473791241	0.58369451685914	0.07352239820712214	-0.12051877383726611	0.5670421725968289	0.067538335512344	-0.1166599625909831	0.5414001710322702	0.055884180813514206	-0.10917143910374533	0.5090757685892692	0.029422501655479105	-0.09332655147902147	0.5873143534474993	0.07110607845205064	-0.0869770372276612	0.5703158620469821	0.06598936094724406	-0.08383530329835504	0.5475705474225133	0.05671381857662672	-0.07973713842065516	0.5155132243498656	0.03306065937110003	-0.07283953514024638	0.5852202101795294	0.03481212780853138	-0.059640812183773984	0.5694696588598877	0.040421218193459674	-0.055972265035237445	0.5488358003075187	0.0426978403735192	-0.052830149236911705	0.5161335678986553	0.027549601578816807	-0.05142362590067856	0.4622830810018609	-0.023011742144276925	-0.051989820119430985
72	2.433333333333323	0.532746587286771	-0.004352349826361235	-0.14998078725608546	0.5246943153338374	-0.00990177241997936	-0.12918740308531046	0.5024393714097568	-0.021786731288148564	-0.11095871076693625	0.484190034152023	-0.024780074531645324	-0.0703644798236101	0.5729805436314575	0.05470471410785316	-0.1490738663979667	0.5568982099886652	0.048825212439331356	-0.14317556115563163	0.5359850758443881	0.03863992029672414	-0.13364086256400226	0.5074237590620232	0.015113863017267914	-0.11255978321447319	0.5836302615145996	0.0736908192422081	-0.1204308372911081	0.5669759620761676	0.06770261313193804	-0.11658692030501616	0.54135855635135	0.05598679018526542	-0.1091104527826961	0.5091121262988907	0.02940553316393657	-0.09330689479603044	0.5873002023817726	0.0711711808698603	-0.08682879147855077	0.5702962126862703	0.06606521046471392	-0.08369935052895289	0.5475478254856905	0.05678397810487357	-0.0796312324560407	0.5155293959512348	0.03305552348958507	-0.07281203560323662	0.5852547316426462	0.03495826046230199	-0.0595936555657241	0.5694845827108498	0.040511974629480973	-0.055925050705803225	0.5488429756561806	0.04271359727329993	-0.05278038300716614	0.5161587131415813	0.027522727933567026	-0.05141659285471056	0.4622830810018608	-0.023011742144276925	-0.051989820119430985
74	2.4666666666666672	0.5327690875353361	-0.00433538225461616	-0.1499495967917242	0.5246982112474052	-0.009890083393667815	-0.12916483672092394	0.5024381273340744	-0.021797527906554093	-0.11095710678707438	0.4841930781762932	-0.02478417299208191	-0.07036045504874444	0.5730587481385483	0.0545923902988148	-0.14903099103064488	0.5569551405043429	0.048757625395409954	-0.14314632114308473	0.536006265133772	0.03862041137421235	-0.13363888481162686	0.5074192452977336	0.015129809940073624	-0.11255310678101133	0.5836685368735858	0.07366321129110265	-0.12031656949160446	0.5669877416521207	0.06773416771840524	-0.11649590029726165	0.541349254585358	0.056048996808906404	-0.10904376558677453	0.5091350118193694	0.029401789765165498	-0.09328569334484238	0.5874242762708075	0.07092002872453096	-0.08670740171274399	0.5703860757951364	0.06592584128844103	-0.08358365133794693	0.547582466568043	0.05676931702937804	-0.07954218517933359	0.5155402630784981	0.03305515962846706	-0.07278520595046056	0.5852858484356234	0.03471857672818712	-0.05959111543478651	0.5695388991533752	0.040329485707374824	-0.055909907925072666	0.5489073414004482	0.04260752746433938	-0.05275374420289891	0.5161881746461786	0.027491105868861054	-0.05139972202654619	0.4622830810018609	-0.023011742144276925	-0.051989820119430985
75	2.500000000000001	0.5327743275973018	-0.004330062498230092	-0.14993765720185243	0.5246889774890577	-0.009888678118144756	-0.1291595700421267	0.5024259215932351	-0.02181130414874244	-0.11096541354301998	0.48419072685790976	-0.0247837935245524	-0.07036329561949944	0.5731260241027536	0.05448833744041037	-0.14898904186217363	0.557000515347513	0.04870105467777497	-0.14311747259919408	0.5360148631580559	0.03861454085691929	-0.13363725772162835	0.5074022206711052	0.015158588568909614	-0.11254766108782432	0.5837209666143158	0.07359208815560381	-0.12020307906105271	0.5670087020593901	0.06773734575317458	-0.11640542125032621	0.5413365615142963	0.056108920613519464	-0.10898043110862343	0.5091445158214605	0.029410243478593	-0.09326417346389948	0.5875639056208486	0.07060752299714546	-0.0866071807653816	0.5704865954786504	0.06574707128554313	-0.08348604516013203	0.5476193072190587	0.056741341163466186	-0.07946560592777707	0.5155348361656052	0.03307022113627234	-0.07275847331552854	0.5853006407473007	0.034411197191486	-0.059608704581827376	0.569588779613496	0.040108125217376056	-0.055909727590838676	0.548971575943383	0.042491520615499656	-0.05273760555641471	0.5162098475818023	0.027467747418573607	-0.05138156547982098	0.4622830810018609	-0.023011742144276925	-0.051989820119430985
76	2.533333333333334	0.5327608403858191	-0.004313230409794699	-0.14994126435076624	0.5246687327464412	-0.00987845401408316	-0.12916757714346022	0.502409376473615	-0.021816307412674485	-0.11097887970375492	0.4841849948377728	-0.024775439281474965	-0.07037093155841989	0.5731687182654399	0.05441670195911663	-0.14895085214820103	0.5570243304965649	0.04867166031971981	-0.1430896884301503	0.5360059082758291	0.03863044633878199	-0.13363401383021306	0.5073734273564456	0.015199997568059231	-0.11254299202462742	0.5837631860977242	0.07351995717091486	-0.1200970687443293	0.5670208730712407	0.06773848266248339	-0.11631956864087467	0.5413106947401851	0.056176729955248916	-0.10892212620973124	0.5091383608819611	0.02943277033635272	-0.09324253823626033	0.5876862336061195	0.07030467008256813	-0.08652696263034321	0.5705719536234015	0.0655756929076371	-0.08340635442806615	0.5476440856488308	0.056718325903674094	-0.07940137017119775	0.5155108527946034	0.0331026391737429	-0.07273237319940673	0.5852953202641342	0.03411565697190733	-0.059638680060767946	0.5696219882009022	0.03990474475109518	-0.05591938917129469	0.5490201709791089	0.0423952250198425	-0.052729615795205464	0.5162199067950358	0.02745676753336246	-0.05136264528358414	0.4622830810018609	-0.023011742144276925	-0.051989820119430985
